<svg height="512" viewBox="0 0 128 128" width="512" xmlns="http://www.w3.org/2000/svg"><g id="Circle_Grid" data-name="Circle Grid"><circle cx="64" cy="64" fill="#ea8953" r="64"/></g><g id="icon"><path d="m78.042 96.679h-28.075l4.018-12.396h20.039z" fill="#62667c"/><path d="m80.013 95.613h-32.013a2.407 2.407 0 0 0 -2.407 2.407v1.269h36.827v-1.269a2.407 2.407 0 0 0 -2.407-2.407z" fill="#575b6d"/><path d="m106 32.077v53.505a3.2 3.2 0 0 1 -3.195 3.212h-77.593a3.208 3.208 0 0 1 -3.212-3.212v-53.5a3.361 3.361 0 0 1 3.365-3.366h77.27a3.361 3.361 0 0 1 3.365 3.361z" fill="#575b6d"/><path d="m41.612 16.244h44.786v77.055h-44.786z" fill="#69b0ee" transform="matrix(0 1 -1 0 118.776 -9.233)"/><circle cx="64.005" cy="82.979" fill="#828a9e" r="2.133"/><g fill="#eeefee"><path d="m30.926 37.261h66.158v17.393h-66.158z"/><path d="m30.926 59.474h18.113v12.808h-18.113z"/><path d="m54.948 59.474h18.113v12.808h-18.113z"/><path d="m78.971 59.474h18.113v12.808h-18.113z"/></g></g></svg>