<svg xmlns="http://www.w3.org/2000/svg" xmlns:xlink="http://www.w3.org/1999/xlink" viewBox="0 0 255.12 99.36"><defs><style>.cls-1{fill:#dd1217;}.cls-2{fill:#514d4b;}.cls-3{fill:#1d1d1b;}</style><symbol id="Genki_Logo" data-name="Genki_Logo" viewBox="0 0 255.12 99.36"><path class="cls-1" d="M89.42,19.87a13.79,13.79,0,0,0,1,6.08,10.1,10.1,0,0,1-3,2.36s-2.89-.78-4.34.92a17.17,17.17,0,0,0-2.4,5.21s-4.2-3.33-6-3.76L71.41,31.9A3,3,0,0,0,70,30.72c-1-.44-2.41,1.49-.88,2.1a7,7,0,0,1,2.72,2.58H69.23s-1.36,1.45-1.32,2.24a1.58,1.58,0,0,1-1.27-1.36s1.45-1.18.57-2.54-1.4-3.63-.35-4.07,2-2.23,1.49-3.15c0,0,.44-1.09,2.45.17s1.36-.17,1.36-.17.65-1.66.35-2.32.87-1.93.87-1.93,1.32-3.63,1-5-.84-3.94-.84-3.94L75,12.25s4.64,8.93,9.59,9.19c1.1.23,3.94-1.35,4.67-1.77a49.68,49.68,0,1,0-63.4,73.62,1.25,1.25,0,0,1-.25-.2c-.28-.27-.14-2.06-.18-2.26s-.13-1.17-.2-1.48-1.1-1-.41-2a1.2,1.2,0,0,0-.14-1.75c-.21-.17-1.79-1.17-1.79-1.17L23.4,82l-.13.07.35-.2a31.67,31.67,0,0,0,3.6-2.17,1.69,1.69,0,0,1,1.18-.45s1,1.24,1.29,1.62,2.2.1,2.2.1a3.2,3.2,0,0,0,.21,1.82c.41.82,1.37,2.08.76,3a19.89,19.89,0,0,0-1.69,3c0,.2-.93,4.09-.93,4.09L28.4,94.36c-.09.07-.28,0-.52,0A49.68,49.68,0,0,0,89.42,19.87Zm-65-12.53a4.08,4.08,0,0,1,1.34.46c2-.54,4.52-1.31,7.48-2.29a6.4,6.4,0,0,1,2-.56c2,.16,3,.7,3,1.61,0,.68-1.68,1.54-5,2.57q-5.67,2.4-9,3.66A21.82,21.82,0,0,0,28,10.33c-.6,0-1-.05-1.13-.07a3.82,3.82,0,0,1-1.64-.95C24.37,8.63,24,8.1,24,7.73S24.11,7.34,24.42,7.34ZM16,31.09c0-.19.12-.33.37-.42a11.12,11.12,0,0,0,1.54-.81A87,87,0,0,0,31,16.73a43.88,43.88,0,0,0-5.93,3.2,5.23,5.23,0,0,1-1.95.74,2.11,2.11,0,0,1-1.81-1.09,4.46,4.46,0,0,1-.82-2A2,2,0,0,1,21.18,16c.53-.52.9-.77,1.13-.77s.27.09.27.28,0,.63-.07,1.12Q27.57,15,34.16,12.23c1.11-1.36,2-2,2.59-2a4.84,4.84,0,0,1,2.25.7,1.9,1.9,0,0,1,1,1.55c0,.63-1.34,1.67-4,3.1q-1.87,2.07-3,3.51c.87.73,1.3,1.35,1.3,1.87a1.84,1.84,0,0,1-.55,1.13,29.28,29.28,0,0,0-1.4,4.89c0,1.12,1.29,1.68,3.86,1.68a24.89,24.89,0,0,0,6.18-1.09,34.51,34.51,0,0,0,1.4-7.28,12.42,12.42,0,0,0-.37-2.5q2.49,2.54,3.75,9.82a2.53,2.53,0,0,1,1.09,2.14c0,.87-.69,1.6-2.08,2.19a14.9,14.9,0,0,1-5.32.77,22.51,22.51,0,0,1-7.24-1.09q-3.69-1.62-3.69-5a35.82,35.82,0,0,1,.85-5.73q-5.25,6.57-8,8.44-3.82,2.12-6.15,2.11C16.16,31.44,16,31.32,16,31.09ZM29,44.65c-.92-.37-1.37-.75-1.37-1.13s.15-.42.44-.42L29.59,43A54.41,54.41,0,0,0,35,41.41a5.3,5.3,0,0,1,1.88-.6,2.62,2.62,0,0,1,1.26.43,1,1,0,0,1,.58.91c0,.42-.79.85-2.39,1.27a42.81,42.81,0,0,1-9.59,3.48c1.23-.63,2.37-1.28,3.41-1.93A2.64,2.64,0,0,1,29,44.65Zm.37-3a10.2,10.2,0,0,1-3.55,1q-1,0-1-1.8c0-.67.55-1.31,1.67-1.89a15,15,0,0,0,2.42-3.84,2.74,2.74,0,0,1-.65-1.55c0-.35.36-.55,1.06-.6a2.33,2.33,0,0,1,1.47.32c1.35,1.1,2,2,2,2.78a4.25,4.25,0,0,1-1.16,2.22c1.52-.47,3-1,4.37-1.55.79-1,1.46-1.55,2-1.55a5.29,5.29,0,0,1,2.25.53,2.08,2.08,0,0,1,1.23,2c0,.68-.43,1.11-1.3,1.3Q34.79,40.18,29.38,41.66ZM24.84,63.79a8.36,8.36,0,0,1-2.56.56c-.62,0-.92-.28-.92-.84a2.29,2.29,0,0,1,.75-1.23c.52-1.76,1-3.28,1.43-4.54a6.35,6.35,0,0,0,.89,2.95,21.92,21.92,0,0,0,4.07-4A10,10,0,0,0,26,54.78c-.28-.14-.41-.31-.41-.52s.18-.51.54-.53l1.64,0a18.36,18.36,0,0,1,2.39.6c.8-1,1.58-2.16,2.36-3.38a2.65,2.65,0,0,1-.38-1,2.1,2.1,0,0,1,.07-.56q-4.84,2.67-5.84,2.67a5.69,5.69,0,0,1-2.7-1.51,2.11,2.11,0,0,1-.54-1.52c0-.37.13-.56.41-.56l1.5.39Q30.86,47.19,38,44.65c.93-.82,1.56-1.23,1.88-1.23.66,0,1.6.55,2.83,1.65a1.85,1.85,0,0,1-.68,3.06,18.51,18.51,0,0,0-1.57,6.41c0,3.44,1.74,5.63,5.22,6.54a14.67,14.67,0,0,0,1.06-5.73,22.25,22.25,0,0,0-.31-3.63,25.3,25.3,0,0,1,3.32,11.19,1.74,1.74,0,0,1,.82,1.55c0,1.29-1.11,1.93-3.32,1.93q-4.44,0-7.68-5.52a18,18,0,0,1-1.74-8.13,20.44,20.44,0,0,1,.82-5.91,25.68,25.68,0,0,0-4.88,1.87C35.27,49.89,36,51,36,52a1.5,1.5,0,0,1-.82,1.23,25.74,25.74,0,0,0-2.6,2.36,9.52,9.52,0,0,1,2.15,1.79,6,6,0,0,1,.79,2.85c0,1.22-.54,1.83-1.61,1.83-.68,0-1.4-.57-2.15-1.72-.45-.61-.95-1.24-1.5-1.87Q26.45,63.3,24.84,63.79Zm20.4,14a1.5,1.5,0,0,0-.63,1.51,12.19,12.19,0,0,1-.3,2c-.18.4-.92.66-1.27,1.23s-1.1,1.71-1.1,1.71-1-1.1-1.31-1.14-1.75.26-1.88.57S36.82,87,36.82,87l-1.49-.17a26.48,26.48,0,0,1-1.22-2.45c-.09-.39-.18-2-.18-2s4.74-2.9,5.2-2.28c1.35,1.87,6-1.49,6-1.75,0-1.07-4.14,3.06-5.37.64-.32-.64-3.92,1.48-3.92,1.48l-3-.48-3.79-.31a2.19,2.19,0,0,1-.62-1.75c.22-.87,2.06-1.18,2.06-1.18l6.43-6.08a11.3,11.3,0,0,0,4.12.65c1.84-.17,5.16-2,6-1.44s.83,1.14.83,1.14l2.32-.88L50.14,68l2.71-3.76s.22-3.33.66-3.77,1.71,1.32,1.44,2.63.57,1,.57,1l6-4.24a4,4,0,0,1,2-2.8l1.18-2.67a4.3,4.3,0,0,0,1.4-3c.09-2,1.22-3.94,1-4.42s-1.93-.75-1.8-.88a2.43,2.43,0,0,0,1.27-1.75c.26-1.31-.66-2.67.35-3.11s1.27-2.27,1.27-2.27,1.09-.39,1.53-.57A5.51,5.51,0,0,0,71,37.07l.75.3,1.4.27v4.59s2.8,2.36,2.67,5-2.5,5.78-2.54,7.31c-.09.44-.31,1.18-.31,1.18l-1-.39s-1.18-.13-1.09,1.49,1.31,2.45.7,4.68-2.37,3.89-2.28,5.25a3.66,3.66,0,0,0,.7,2.06l.57,1a2.81,2.81,0,0,0-1.62,1.49,15.58,15.58,0,0,0-.65,1.75l-2.11,1.18s0-1.4,0-1.75-1-.13-1.61-.13-1.1,1.26-1.1,1.26-.57,2.11-1.09,2.24a.88.88,0,0,1-.83-.18V73.43a1.11,1.11,0,0,0-1.1.62c-.48.74-1.14,1.91-1.14,1.91H54.87s-2.06-.93-1.93,0A2.56,2.56,0,0,0,54,77.5a4.88,4.88,0,0,0-2.14.57A8.66,8.66,0,0,0,50,81.4a1.24,1.24,0,0,1-1.8.48c-.48-.44-2.19-2-2.1-2.45s-.83-1.6-.83-1.6"/><path class="cls-2" d="M255,37.84a6.68,6.68,0,0,1-.4,1.53,3.09,3.09,0,0,1-1.1,1.43,5.13,5.13,0,0,1-2.14.83,9.05,9.05,0,0,1-3.47-.24,30.19,30.19,0,0,0,1.46-6.53c.11-1,.19-2.22.22-3.52a41.25,41.25,0,0,0-.14-4.21c-.11-1.5-.32-3.12-.61-4.84a51.52,51.52,0,0,0-1.29-5.48,1.4,1.4,0,0,1-.44-.87,3.12,3.12,0,0,1,.11-1.27,6.48,6.48,0,0,1,1-1.93,9.32,9.32,0,0,1,2.16-2.39,2,2,0,0,1,2-.46q.85.34,1.32,2.13a17.54,17.54,0,0,1,.2,5.36c.33,2.92.59,5.7.8,8.33.09,1.11.17,2.25.24,3.41s.13,2.3.18,3.38.06,2.08,0,3S255.06,37.2,255,37.84Z"/><path class="cls-2" d="M166,33.09a9.09,9.09,0,0,0,2.88,1.18,10.82,10.82,0,0,0,3,.21,18.59,18.59,0,0,0,3-.46,17.11,17.11,0,0,0,2.78-.93,29.08,29.08,0,0,0,6.07-3.48,53.37,53.37,0,0,1-6.07,6.54,23,23,0,0,1-5.28,3.66,12.43,12.43,0,0,1-4.53,1.32,9.7,9.7,0,0,1-3.72-.39,9.45,9.45,0,0,1-3-1.57A14.61,14.61,0,0,1,158.87,37c-.66.52-1.27,1-1.81,1.56s-1,1-1.5,1.35-1,.93-1.44,1.35a19.32,19.32,0,0,1,.6-5.05,14.63,14.63,0,0,1,1.59-3.84,15.9,15.9,0,0,1-.75-4.52,24.78,24.78,0,0,1,.32-4.66,27.87,27.87,0,0,1,1-4.3,17.26,17.26,0,0,1,1.53-3.53A8.89,8.89,0,0,1,162,12a14.62,14.62,0,0,1,5.35-1.71,13.9,13.9,0,0,1,5.81.54,10.44,10.44,0,0,1,5,3.31,8,8,0,0,1,1.93,3.52,7.71,7.71,0,0,1,0,3.31A8.18,8.18,0,0,1,178.78,24a17.34,17.34,0,0,1-2.12,2.52,26.1,26.1,0,0,1-2.32,2c-.77.6-1.42,1.08-2,1.46a19.1,19.1,0,0,1-3.19,1.78C168,32.26,167,32.71,166,33.09Zm-1.63-13.23a6.33,6.33,0,0,0-2.24,3.7,13.47,13.47,0,0,0-.25,3.55,31.23,31.23,0,0,1,3.28-1.7c1.06-.48,2-.93,2.84-1.35l1.59-.72c.65-.28,1.28-.59,1.91-.92a8.05,8.05,0,0,0,1.62-1.1,2.07,2.07,0,0,0,.76-1.32,1.54,1.54,0,0,0-.88-1.39,5.27,5.27,0,0,0-2.38-.74,9,9,0,0,0-3.12.28A7.34,7.34,0,0,0,164.37,19.86Z"/><path class="cls-2" d="M199.17,9.71a6.76,6.76,0,0,1,4.63.32,9.89,9.89,0,0,1,3.62,3A21.42,21.42,0,0,1,210.15,18a43.79,43.79,0,0,1,1.9,5.94,56.47,56.47,0,0,1,1.15,6.19q.39,3.1.5,5.59a40.83,40.83,0,0,1,0,4.16,4,4,0,0,1-.39,2,3.52,3.52,0,0,1-2.08.67,17.15,17.15,0,0,1-2.95,0,11.49,11.49,0,0,1-2.69-.57c-.79-.29-1.21-.62-1.25-1a10.08,10.08,0,0,1-.07-2.88c.09-1.3.19-2.76.28-4.37s.13-3.28.11-5a21.3,21.3,0,0,0-.54-4.66,7.64,7.64,0,0,0-1.68-3.42,4.17,4.17,0,0,0-3.27-1.32,5.06,5.06,0,0,0-3.73,1.39A6.88,6.88,0,0,0,193.79,24a15.33,15.33,0,0,0-.22,4.51,46.78,46.78,0,0,0,.69,4.91c.31,1.62.6,3.11.89,4.49a22.4,22.4,0,0,1,.5,3.2c0,.23-.43.41-1.29.53a20.52,20.52,0,0,1-2.83.18,21.34,21.34,0,0,1-2.87-.18c-.89-.12-1.33-.3-1.33-.53q0-6.48-.43-11a33.08,33.08,0,0,0-1.36-7.22A8.65,8.65,0,0,0,183.13,19a5.29,5.29,0,0,0-3.48-1.21c-.38,0-.45-.4-.21-1.21a15.63,15.63,0,0,1,1.14-2.74,27.57,27.57,0,0,1,1.76-2.92A5,5,0,0,1,184,9.21a2.08,2.08,0,0,1,2.54.46,9,9,0,0,1,1.76,3,23.41,23.41,0,0,1,1.12,4.06c.26,1.45.44,2.64.53,3.59a8,8,0,0,1,1-3.45,14.67,14.67,0,0,1,2.3-3.2,16.69,16.69,0,0,1,2.94-2.53A9.58,9.58,0,0,1,199.17,9.71Z"/><path class="cls-2" d="M150.15,3.34c-.91,1.2-1.91,2.54-3,4s-1.91,2.55-2.42,3.21-1.1,1.42-1.78,2.29a9.15,9.15,0,0,0-1.52-2.5,10.66,10.66,0,0,0-2.29-2A12.15,12.15,0,0,0,136,6.89a14.87,14.87,0,0,0-3.74-.65q-5.55,0-8.3,3c-1.84,2-2.76,5-2.76,9.17a21,21,0,0,0,.54,4.92,10.86,10.86,0,0,0,1.67,3.86,6,6,0,0,0,.81.94,9.69,9.69,0,0,0,1,.76l1.17.84a7.25,7.25,0,0,0,2.38.93,14.32,14.32,0,0,0,3.52.44,6.3,6.3,0,0,0,3.1-.61,6,6,0,0,0,2.19-1.4A3.46,3.46,0,0,0,139,26.47a2.72,2.72,0,0,0-.27-1,9.34,9.34,0,0,1-2.83-1.63,23,23,0,0,1-1.78-1.63h19a41,41,0,0,1-.25,4.21,15.8,15.8,0,0,1-.65,3.38,17.33,17.33,0,0,1-2.46,4.53,17.94,17.94,0,0,1-3.63,3.55,23.44,23.44,0,0,1-4.4,2.54A25.15,25.15,0,0,1,137,42a22.16,22.16,0,0,1-4.69.52A18.06,18.06,0,0,1,124.69,41a18.27,18.27,0,0,1-6-4.4,20.32,20.32,0,0,1-3.94-6.72,24.7,24.7,0,0,1-1.39-8.46A24.88,24.88,0,0,1,114.78,13a19.89,19.89,0,0,1,3.9-6.67,17.41,17.41,0,0,1,13.41-6,46.25,46.25,0,0,1,11.74,1.66c1.08.33,2.22.63,3.4.92A17.12,17.12,0,0,0,150.15,3.34Z"/><path class="cls-2" d="M237.58,12.13a15,15,0,0,1-1-1.81A2.85,2.85,0,0,1,236.36,9a29.76,29.76,0,0,1,3.28.16,8,8,0,0,1,2.52.75,4.47,4.47,0,0,1,1.6,1.66,6.76,6.76,0,0,1,.56,3,6.7,6.7,0,0,1-.62,2.79A9.41,9.41,0,0,1,242,19.79a12.53,12.53,0,0,1-1.18,1.05,5.79,5.79,0,0,1-1.27.78c-.2.1-.51.27-.94.52a11.54,11.54,0,0,1-1.13.59,3.39,3.39,0,0,1-.88.28,17.5,17.5,0,0,0-.1,1.85,10.62,10.62,0,0,0,.43,2.86,19,19,0,0,0,1.18,3,24.25,24.25,0,0,0,1.71,3,26.07,26.07,0,0,0,2.07,2.85,21.87,21.87,0,0,0,2.19,2.5A22.84,22.84,0,0,0,246.26,41a2.22,2.22,0,0,1,.18.33,1.27,1.27,0,0,1,.11.52.67.67,0,0,1-.29.58,11.76,11.76,0,0,1-4.32-.78,12.21,12.21,0,0,1-3.46-2,16.56,16.56,0,0,1-2.78-2.89,41.2,41.2,0,0,1-2.38-3.44c-.72-1.19-1.42-2.38-2.09-3.57-.87-1.51-1.61-2.71-2.2-3.61a15.85,15.85,0,0,1-2.39.72c-1.3.33-2.45.57-3.44.74V40l-.29.64a2.19,2.19,0,0,1-.62.76,2.61,2.61,0,0,1-1.19.47,7.22,7.22,0,0,1-2,.17,3,3,0,0,1-1.62-.73,2,2,0,0,1-.74-1l0-12.23c-1.18-.29-1.78-.9-1.78-1.83a1.82,1.82,0,0,1,.43-1.2,1.9,1.9,0,0,1,.8-.64V13.92a1.77,1.77,0,0,0-.33-.28,3.48,3.48,0,0,1-.58-.57,1.23,1.23,0,0,1-.25-.78c0-.34.25-.64.75-.91a3.3,3.3,0,0,1,1.39-.67,24.13,24.13,0,0,1,2.41-.61q1.32-.27,2.82-.48a18.9,18.9,0,0,1,2-.22c.59,0,.89.16.89.49a1.87,1.87,0,0,1-.07.29,10,10,0,0,1-.1,1.47,5.43,5.43,0,0,1-.45,1.43,1.39,1.39,0,0,1-1,.84v9.34a8.25,8.25,0,0,0,1.39-.11c.42-.08.85-.18,1.31-.31l1.46-.41A13.39,13.39,0,0,0,231.38,21a18.31,18.31,0,0,0,3.15-2.47A38.29,38.29,0,0,0,237.68,15a2.16,2.16,0,0,0,.42-1.26A3.06,3.06,0,0,0,237.58,12.13Z"/><path class="cls-3" d="M113.89,60.66l.82-.57a1.67,1.67,0,0,0,1.53,1c1,0,1.42-.54,1.42-1.9V53h1.14V59.3c0,1.53-.72,2.78-2.45,2.78A2.63,2.63,0,0,1,113.89,60.66Z"/><path class="cls-3" d="M124,53h1.28l3,8.9h-1.21l-.84-2.71H123l-.86,2.71H121Zm-.72,5.28H126l-.43-1.36c-.32-1-.61-2-.89-3h-.05c-.28,1-.56,2-.89,3Z"/><path class="cls-3" d="M130.6,53h2.53c2,0,3.34.67,3.34,2.62s-1.33,2.75-3.28,2.75h-1.47v3.53H130.6Zm2.45,4.45c1.55,0,2.3-.57,2.3-1.83s-.79-1.71-2.35-1.71h-1.28v3.54Z"/><path class="cls-3" d="M140.44,53h1.27l3,8.9h-1.2l-.85-2.71h-3.24l-.85,2.71h-1.16Zm-.72,5.28h2.67L142,56.94c-.33-1-.61-2-.9-3h0c-.27,1-.56,2-.88,3Z"/><path class="cls-3" d="M147,53h1.17l3.21,5.59,1,1.84h0c0-.89-.13-1.89-.13-2.83V53h1.07v8.9h-1.17l-3.23-5.6-1-1.83h-.06c.07.89.15,1.84.15,2.78v4.65H147Z"/><path class="cls-3" d="M156.78,53h5.12V54h-4v2.8h3.38v1H157.9V61H162v1h-5.26Z"/><path class="cls-3" d="M164.28,60.77,165,60a3.5,3.5,0,0,0,2.45,1.11c1.17,0,1.86-.58,1.86-1.45s-.63-1.19-1.48-1.57l-1.27-.56a2.49,2.49,0,0,1-1.8-2.29,2.52,2.52,0,0,1,2.79-2.36,3.69,3.69,0,0,1,2.63,1.1l-.61.73a2.81,2.81,0,0,0-2-.84c-1,0-1.65.5-1.65,1.3s.77,1.18,1.47,1.48l1.27.54a2.48,2.48,0,0,1,1.83,2.38c0,1.41-1.16,2.53-3,2.53A4.3,4.3,0,0,1,164.28,60.77Z"/><path class="cls-3" d="M173.18,53h5.13V54h-4v2.8h3.38v1h-3.38V61h4.14v1h-5.27Z"/><path class="cls-2" d="M184.27,59.61A3.19,3.19,0,0,1,186,57.05a4.86,4.86,0,0,1-.58-2.09,2,2,0,0,1,2.06-2.1,1.64,1.64,0,0,1,1.75,1.76c0,1.17-1,1.91-2,2.63a11.86,11.86,0,0,0,2.25,2.5,7.55,7.55,0,0,0,1.25-2.63h1a10.3,10.3,0,0,1-1.56,3.19,6,6,0,0,0,1.67.85l-.3.92a6.8,6.8,0,0,1-2-1,3.74,3.74,0,0,1-2.56,1A2.49,2.49,0,0,1,184.27,59.61Zm2.84,1.58a2.56,2.56,0,0,0,1.69-.72,13.07,13.07,0,0,1-2.33-2.65,2.36,2.36,0,0,0-1.11,1.73A1.64,1.64,0,0,0,187.11,61.19Zm-.29-4.68c.82-.55,1.52-1.09,1.52-1.87,0-.52-.24-1-.84-1A1.16,1.16,0,0,0,186.4,55,3.88,3.88,0,0,0,186.82,56.51Z"/><path class="cls-3" d="M197.53,57.47c0-2.86,1.68-4.61,3.95-4.61a3.24,3.24,0,0,1,2.44,1.1l-.61.73a2.45,2.45,0,0,0-1.82-.84c-1.68,0-2.79,1.38-2.79,3.59s1.07,3.65,2.75,3.65a2.68,2.68,0,0,0,2.06-1l.63.7a3.44,3.44,0,0,1-2.73,1.29C199.19,62.08,197.53,60.37,197.53,57.47Z"/><path class="cls-3" d="M206.57,58.24V53h1.13v5.25c0,2.14.9,2.82,2.07,2.82s2.1-.68,2.1-2.82V53H213v5.22c0,2.87-1.37,3.84-3.19,3.84S206.57,61.11,206.57,58.24Z"/><path class="cls-3" d="M216.37,53h1.12V61h3.9v1h-5Z"/><path class="cls-3" d="M224.18,54H221.5V53H228V54h-2.69v8h-1.14Z"/><path class="cls-3" d="M230.58,58.24V53h1.12v5.25c0,2.14.91,2.82,2.08,2.82s2.1-.68,2.1-2.82V53H237v5.22c0,2.87-1.37,3.84-3.19,3.84S230.58,61.11,230.58,58.24Z"/><path class="cls-3" d="M240.38,53h2.78c1.81,0,3.12.65,3.12,2.5a2.43,2.43,0,0,1-2,2.52l2.26,3.88h-1.27l-2.14-3.76H241.5v3.76h-1.12ZM243,57.24c1.39,0,2.16-.57,2.16-1.72s-.77-1.59-2.16-1.59H241.5v3.31Z"/><path class="cls-3" d="M249.1,53h5.13V54h-4v2.8h3.38v1h-3.38V61h4.14v1H249.1Z"/><path class="cls-2" d="M115.11,95.49l1.13-1.2a9.75,9.75,0,0,0,7.26,3.34c3.79,0,6.16-2,6.16-5,0-3.08-2-4.09-4.44-5.18l-3.75-1.69c-2.15-.94-5-2.48-5-6.17s3.08-6.09,7.22-6.09a9.42,9.42,0,0,1,6.87,3l-1,1.13a8,8,0,0,0-5.9-2.52c-3.27,0-5.49,1.73-5.49,4.44,0,2.89,2.48,3.94,4.28,4.77L126.2,86c2.78,1.24,5.23,2.78,5.23,6.58s-3.12,6.65-7.93,6.65A11,11,0,0,1,115.11,95.49Z"/><path class="cls-2" d="M137.1,86.32c0-7.85,4.29-12.78,10.56-12.78a8.54,8.54,0,0,1,6.47,3l-1,1.17a7.05,7.05,0,0,0-5.41-2.56c-5.45,0-8.79,4.32-8.79,11.2s3.3,11.31,8.64,11.31a8,8,0,0,0,6.27-3l1,1.09a9.31,9.31,0,0,1-7.37,3.53C141.35,99.21,137.1,94.21,137.1,86.32Z"/><path class="cls-2" d="M161.94,74h1.73V84.86h13.27V74h1.73V98.76h-1.73V86.36H163.67v12.4h-1.73Z"/><path class="cls-2" d="M186.45,86.28c0-7.81,4.24-12.74,10.18-12.74s10.22,4.93,10.22,12.74-4.24,12.93-10.22,12.93S186.45,94.14,186.45,86.28Zm18.56,0c0-6.84-3.34-11.16-8.38-11.16s-8.38,4.32-8.38,11.16,3.34,11.35,8.38,11.35S205,93.16,205,86.28Z"/><path class="cls-2" d="M213,86.28c0-7.81,4.24-12.74,10.18-12.74s10.22,4.93,10.22,12.74-4.24,12.93-10.22,12.93S213,94.14,213,86.28Zm18.56,0c0-6.84-3.34-11.16-8.38-11.16s-8.38,4.32-8.38,11.16,3.35,11.35,8.38,11.35S231.58,93.16,231.58,86.28Z"/><path class="cls-2" d="M241.17,74h1.72V97.26h11.43v1.5H241.17Z"/></symbol></defs><title>main_CMYK</title><g id="Layer_2" data-name="Layer 2"><g id="Main"><use width="255.12" height="99.36" xlink:href="#Genki_Logo"/></g></g></svg>